<?xml version="1.0" standalone="no"?>
<!DOCTYPE svg PUBLIC "-//W3C//DTD SVG 20010904//EN"
 "http://www.w3.org/TR/2001/REC-SVG-20010904/DTD/svg10.dtd">
<svg version="1.0" xmlns="http://www.w3.org/2000/svg"
 width="1152.000000pt" height="1152.000000pt" viewBox="0 0 1152.000000 1152.000000"
 preserveAspectRatio="xMidYMid meet">
<metadata>
Created by potrace 1.11, written by Peter Selinger 2001-2013
</metadata>
<g transform="translate(0.000000,1152.000000) scale(0.100000,-0.100000)"
fill="#000000" stroke="none">
<path d="M1849 11516 c-2 -2 -33 -6 -69 -9 -36 -3 -103 -13 -150 -22 -47 -10
-96 -19 -110 -21 -105 -19 -438 -156 -540 -223 -14 -9 -33 -20 -42 -26 -140
-81 -337 -254 -469 -410 -19 -22 -37 -42 -40 -45 -14 -12 -120 -171 -161 -240
-132 -227 -219 -491 -255 -775 -10 -77 -10 -7867 -1 -7960 12 -114 18 -144 48
-265 38 -150 68 -236 126 -362 159 -341 413 -633 724 -832 159 -102 255 -150
411 -207 151 -54 208 -68 399 -99 111 -17 267 -18 4070 -16 2175 1 3969 5
3985 9 25 6 89 19 225 43 50 10 257 82 340 120 617 279 1042 836 1157 1514 17
100 18 308 18 4050 0 2170 -4 3977 -8 4015 -4 39 -17 113 -28 165 -11 52 -22
104 -24 115 -3 11 -20 65 -38 120 -145 428 -433 800 -807 1039 -159 102 -255
150 -411 207 -151 54 -208 68 -399 99 -110 17 -278 18 -4031 19 -2154 1 -3918
-1 -3920 -3z m7971 -475 c406 -90 718 -291 957 -616 110 -150 210 -369 252
-550 42 -185 40 -19 38 -4145 -1 -2153 -6 -3928 -10 -3945 -4 -16 -9 -43 -12
-60 -9 -56 -14 -74 -35 -150 -19 -67 -31 -103 -59 -170 -5 -11 -27 -58 -51
-104 -197 -392 -549 -679 -976 -796 -207 -57 48 -54 -4209 -52 l-3920 2 -95
23 c-366 85 -634 242 -870 508 -162 182 -293 444 -344 684 -8 41 -19 91 -23
110 -4 19 -8 1797 -10 3950 -2 4127 -4 3962 39 4145 126 547 555 990 1105
1141 202 55 -38 52 4198 50 l3920 -1 105 -24z"/>
<path d="M6226 10203 c-1 -2 -97 -5 -212 -8 -115 -3 -245 -7 -289 -10 -265
-15 -343 -20 -450 -30 -27 -2 -81 -7 -120 -10 -38 -3 -90 -7 -115 -10 -25 -3
-72 -8 -105 -11 -33 -3 -71 -7 -85 -9 -14 -2 -54 -7 -90 -11 -36 -3 -78 -8
-95 -10 -16 -2 -43 -6 -60 -8 -16 -3 -55 -7 -85 -10 -30 -3 -66 -8 -80 -11
-14 -3 -43 -7 -65 -10 -96 -10 -175 -22 -205 -30 -8 -2 -40 -7 -70 -10 -72 -8
-145 -21 -145 -25 0 -1 -11 -3 -25 -4 -14 -1 -38 -5 -55 -9 -16 -4 -46 -9 -65
-12 -19 -3 -48 -8 -65 -12 -16 -3 -39 -7 -50 -9 -11 -1 -20 -3 -20 -4 0 -2
-20 -6 -65 -13 -19 -4 -75 -16 -125 -28 -49 -11 -101 -23 -115 -26 -14 -2 -43
-9 -65 -15 -22 -5 -48 -12 -58 -14 -10 -2 -26 -5 -35 -8 -9 -3 -30 -8 -47 -11
-39 -8 -60 -13 -60 -15 0 -1 -9 -3 -20 -4 -11 -2 -40 -9 -65 -16 -25 -7 -49
-13 -55 -14 -5 -1 -16 -5 -22 -9 -7 -5 -13 -6 -13 -3 0 3 -24 -2 -52 -11 -29
-8 -63 -17 -75 -19 -12 -2 -33 -8 -45 -13 -13 -5 -27 -10 -33 -11 -21 -5 -31
-8 -75 -21 -25 -7 -53 -14 -64 -16 -29 -5 -366 -119 -411 -139 -22 -10 -45
-18 -50 -20 -11 -2 -76 -30 -145 -62 -19 -9 -42 -17 -50 -18 -8 -2 -16 -8 -18
-13 -2 -6 -12 -11 -22 -11 -10 0 -25 -6 -32 -12 -8 -7 -44 -29 -81 -48 -38
-19 -77 -43 -87 -52 -11 -10 -22 -18 -25 -18 -4 0 -12 -6 -19 -12 -7 -7 -34
-32 -59 -56 -56 -50 -96 -108 -103 -147 -3 -16 -7 -32 -10 -36 -2 -4 0 -10 5
-14 7 -3 7 -15 1 -30 -6 -16 -5 -39 4 -70 8 -25 13 -45 11 -45 -2 0 13 -16 33
-36 44 -44 67 -51 149 -49 61 3 64 4 123 59 34 31 68 56 76 56 8 0 14 3 14 8
0 4 15 14 32 21 18 8 53 27 78 41 25 15 49 27 53 27 16 2 72 27 78 35 3 5 16
10 27 11 12 1 22 5 22 9 0 4 3 7 8 6 6 -1 29 7 82 29 8 3 20 7 25 9 6 2 81 28
168 58 86 30 157 52 157 49 0 -3 6 -1 13 4 10 8 222 72 293 88 11 2 46 12 79
21 33 9 65 17 70 19 6 1 21 5 35 8 14 4 37 9 53 11 15 3 35 7 45 10 9 3 28 7
42 10 14 2 45 9 70 16 61 17 375 84 440 95 14 2 36 7 50 10 82 17 369 70 434
81 21 3 48 8 60 10 11 3 39 7 61 9 43 6 80 12 80 15 0 1 9 3 20 4 11 2 40 6
65 10 25 4 56 9 70 11 32 4 110 16 131 20 9 2 38 6 65 9 27 4 65 9 84 11 19 3
58 7 85 10 53 6 114 14 155 20 24 4 124 13 205 20 22 2 69 6 105 10 105 9 180
15 291 21 57 3 133 7 169 9 299 16 724 21 1035 12 329 -11 409 -14 660 -31 33
-2 107 -7 165 -11 58 -3 116 -8 130 -11 14 -2 59 -6 100 -9 41 -3 86 -8 100
-10 14 -2 52 -7 85 -10 85 -7 135 -13 170 -19 17 -3 57 -8 90 -11 68 -6 112
-11 170 -20 22 -3 63 -8 90 -10 28 -3 57 -8 65 -11 8 -3 40 -7 70 -10 30 -2
66 -6 80 -9 14 -3 39 -7 55 -9 17 -3 46 -8 65 -11 19 -4 49 -8 65 -11 60 -9
115 -21 190 -41 33 -8 67 -16 75 -18 26 -5 204 -55 220 -62 8 -3 20 -7 25 -8
6 -2 44 -15 85 -30 41 -15 81 -27 88 -28 6 0 12 -4 12 -9 0 -4 7 -8 15 -8 18
0 229 -109 233 -121 2 -5 8 -9 13 -9 5 0 32 -15 59 -33 l50 -34 -28 -13 c-15
-8 -29 -14 -32 -15 -3 -1 -45 -20 -93 -43 -49 -23 -91 -42 -94 -42 -2 0 -23
-8 -46 -19 -23 -10 -91 -37 -152 -61 -60 -23 -137 -52 -170 -65 -33 -13 -103
-39 -155 -59 -52 -20 -104 -41 -115 -46 -17 -7 -91 -32 -105 -35 -3 -1 -21 -8
-40 -17 -19 -8 -53 -21 -75 -28 -22 -7 -46 -17 -52 -23 -7 -5 -13 -7 -13 -3 0
4 -17 -2 -37 -13 -21 -10 -41 -19 -45 -20 -11 -2 -39 -11 -73 -24 -16 -7 -33
-11 -37 -9 -5 1 -8 -2 -8 -6 0 -5 -6 -9 -12 -9 -7 -1 -67 -22 -133 -47 -66
-26 -163 -63 -215 -82 -52 -19 -104 -39 -115 -44 -23 -11 -78 -33 -85 -34 -3
-1 -61 -24 -130 -51 -69 -27 -128 -48 -132 -47 -5 1 -8 -3 -8 -9 0 -5 -4 -8
-9 -4 -5 3 -12 1 -16 -5 -3 -5 -13 -10 -22 -10 -8 0 -29 -6 -46 -14 -33 -14
-62 -25 -75 -27 -4 0 -11 -4 -17 -9 -5 -5 -46 -23 -90 -40 -44 -18 -91 -37
-105 -43 -14 -6 -27 -11 -30 -12 -3 -1 -18 -8 -35 -15 -16 -7 -32 -14 -35 -15
-16 -5 -69 -28 -94 -41 -16 -8 -33 -14 -38 -14 -5 0 -43 -16 -84 -35 -41 -19
-76 -35 -79 -35 -10 0 -371 -162 -382 -172 -7 -6 -13 -8 -13 -4 0 4 -12 -2
-27 -11 -15 -10 -28 -17 -30 -16 -2 2 -33 -12 -70 -29 -38 -18 -70 -33 -73
-33 -3 -1 -21 -9 -40 -20 -19 -11 -37 -20 -40 -20 -9 -2 -107 -49 -322 -154
-114 -55 -212 -101 -217 -101 -6 0 -15 -8 -20 -17 -6 -10 -11 -14 -11 -10 0 7
-155 -71 -395 -198 -38 -21 -108 -57 -155 -81 -47 -24 -92 -48 -100 -53 -8 -4
-26 -14 -39 -20 -13 -7 -38 -21 -55 -30 -17 -10 -67 -37 -111 -61 -44 -24 -83
-49 -87 -54 -4 -6 -8 -8 -8 -4 0 3 -17 -3 -39 -15 -46 -26 -188 -107 -216
-124 -11 -6 -36 -20 -55 -29 -19 -10 -37 -21 -40 -25 -3 -4 -17 -13 -30 -18
-37 -16 -94 -52 -101 -63 -3 -5 -10 -10 -15 -9 -5 0 -25 -10 -44 -21 -19 -12
-38 -21 -42 -20 -5 1 -8 -1 -8 -6 0 -4 -17 -16 -37 -27 -21 -11 -57 -32 -80
-48 -24 -15 -43 -24 -43 -20 0 4 -5 0 -11 -9 -5 -10 -14 -18 -19 -18 -4 0 -39
-20 -77 -45 -37 -25 -74 -45 -80 -45 -7 0 -13 -4 -13 -8 0 -5 -17 -18 -37 -30
-35 -19 -127 -77 -163 -102 -8 -6 -51 -34 -95 -62 -44 -29 -84 -56 -90 -60 -5
-5 -84 -59 -175 -120 -91 -61 -190 -130 -222 -152 -31 -23 -66 -48 -78 -56
-32 -22 -147 -105 -212 -153 -63 -46 -463 -349 -488 -370 -9 -6 -72 -57 -140
-112 -69 -54 -130 -104 -137 -110 -7 -5 -18 -15 -25 -20 -56 -44 -186 -153
-199 -167 -9 -10 -19 -18 -23 -18 -3 0 -14 -8 -24 -18 -26 -23 -89 -78 -148
-128 -27 -23 -70 -62 -96 -87 -27 -25 -48 -43 -48 -41 0 3 -31 -26 -69 -63
-37 -37 -93 -92 -124 -120 -31 -29 -54 -53 -53 -53 2 0 -20 -24 -48 -53 -81
-85 -123 -135 -225 -268 -35 -46 -119 -197 -113 -203 3 -3 1 -6 -4 -6 -6 0
-18 -26 -29 -57 -10 -32 -22 -62 -26 -68 -3 -5 -10 -28 -14 -50 -5 -22 -10
-47 -13 -55 -12 -44 -10 -270 3 -333 28 -133 100 -245 223 -348 30 -24 63 -52
74 -61 12 -10 27 -18 35 -18 7 0 13 -4 13 -8 0 -10 200 -112 218 -112 7 0 20
-4 30 -9 30 -17 132 -51 132 -45 0 4 7 1 15 -6 8 -7 15 -9 15 -6 0 4 8 2 19
-3 10 -6 33 -13 52 -16 19 -3 43 -9 54 -12 11 -4 27 -7 35 -9 8 -1 61 -9 117
-18 57 -9 144 -16 195 -16 l92 0 46 48 47 49 -1 70 c-1 73 -1 72 -58 136 -13
16 -189 87 -249 101 -8 2 -33 12 -55 22 -21 9 -43 18 -49 19 -5 2 -41 18 -80
36 -38 18 -73 33 -77 34 -4 0 -13 6 -19 13 -7 6 -18 12 -24 12 -11 0 -97 42
-105 51 -3 3 -16 12 -30 19 -117 61 -203 177 -195 263 6 55 9 69 18 85 5 6 6
12 2 12 -3 0 4 18 15 40 11 21 20 46 20 55 0 8 4 15 9 15 5 0 13 10 17 22 12
39 115 197 159 244 6 6 28 32 50 59 61 74 415 423 415 409 0 -1 13 10 28 24
51 50 199 176 342 292 24 19 64 52 89 73 25 20 51 41 56 45 35 26 183 144 195
155 8 8 33 27 55 43 23 16 47 35 55 42 8 7 33 26 55 42 22 16 45 33 50 38 6 4
28 21 50 37 22 17 44 34 50 38 5 4 62 46 125 92 63 47 120 88 125 92 6 5 39
29 75 53 36 25 74 53 84 63 11 9 23 17 27 17 4 0 14 6 21 13 24 22 286 197
296 197 6 0 12 3 14 8 4 9 83 62 121 81 15 7 27 17 27 22 0 5 4 9 10 9 5 0 66
36 135 80 69 44 130 80 135 80 6 0 10 5 10 12 0 6 3 8 7 5 3 -4 21 4 39 18 18
14 41 29 51 33 32 13 183 103 189 113 3 5 10 7 15 4 5 -4 9 -1 9 4 0 6 7 11
15 11 8 0 15 3 15 8 0 4 25 18 55 32 30 14 55 28 55 33 0 4 5 7 11 7 6 0 52
24 102 54 51 29 130 73 177 98 47 25 105 57 130 71 68 38 298 159 355 187 28
14 52 27 55 30 20 20 927 469 1145 567 55 25 128 58 163 74 35 16 65 29 67 29
2 0 36 15 77 34 40 19 85 38 101 41 15 4 30 11 33 16 2 5 22 13 44 19 21 6 46
17 55 26 8 8 15 13 15 10 0 -3 33 9 73 25 39 17 77 32 82 33 13 4 36 13 104
43 29 12 60 23 67 23 8 0 14 5 14 12 0 6 3 9 6 6 5 -5 83 22 149 52 11 5 61
24 110 43 50 19 140 54 200 78 61 24 112 44 115 44 3 1 22 9 44 18 21 9 42 17
47 17 5 0 17 5 27 10 18 11 346 138 372 145 8 2 33 11 55 21 22 10 42 18 45
19 3 1 19 5 35 10 17 4 35 11 40 15 14 10 88 35 98 32 4 -1 7 3 7 8 0 6 6 10
14 10 13 0 173 59 221 82 12 5 27 10 35 12 8 2 29 9 45 16 17 7 32 14 35 14 6
1 51 19 306 120 105 42 196 76 202 76 7 0 12 5 12 10 0 6 5 10 11 10 11 0 39
11 127 51 23 10 43 18 45 18 5 -3 272 136 275 143 2 4 9 8 14 8 18 0 118 80
178 140 79 80 104 136 106 235 3 90 -9 168 -25 173 -6 2 -11 9 -11 15 0 24
-156 171 -247 233 -32 21 -59 42 -61 47 -2 4 -10 7 -18 7 -8 0 -14 3 -14 8 0
4 -10 12 -23 18 -12 6 -65 33 -117 60 -52 27 -133 64 -180 82 -47 18 -94 37
-105 42 -19 8 -124 43 -135 45 -3 0 -36 10 -75 22 -66 21 -145 43 -225 64 -59
15 -262 57 -315 64 -27 4 -61 9 -75 11 -14 2 -43 6 -65 9 -22 3 -51 7 -65 10
-23 6 -41 8 -140 19 -19 3 -55 7 -80 10 -48 7 -120 16 -160 21 -14 2 -52 6
-85 10 -94 10 -127 14 -175 19 -90 11 -236 26 -308 31 -30 2 -79 6 -110 9 -32
4 -88 8 -127 11 -38 3 -104 7 -145 10 -70 5 -134 9 -340 20 -238 13 -956 26
-964 18z"/>
<path d="M3902 8659 c-55 -11 -135 -93 -153 -156 -6 -24 -24 -56 -39 -72 -16
-16 -31 -46 -34 -66 -3 -20 -15 -48 -25 -63 -32 -47 -201 -335 -201 -344 0 -4
-4 -8 -10 -8 -5 0 -10 -5 -10 -11 0 -6 -13 -30 -28 -53 -15 -22 -31 -48 -35
-56 -4 -8 -19 -33 -32 -55 -14 -22 -28 -48 -32 -57 -3 -10 -9 -18 -13 -18 -4
0 -14 -15 -21 -32 -7 -18 -21 -42 -31 -52 -10 -11 -18 -23 -18 -27 0 -7 -75
-139 -108 -189 -9 -14 -17 -27 -17 -30 -1 -3 -21 -48 -47 -100 -41 -86 -59
-126 -63 -140 0 -3 -11 -36 -24 -74 -25 -74 -35 -208 -21 -273 6 -24 26 -54
58 -86 48 -48 51 -49 113 -51 83 -3 115 6 157 46 43 42 51 57 57 108 7 55 21
81 124 233 47 70 93 139 101 152 41 67 115 181 119 185 4 3 11 14 18 25 23 38
74 120 86 139 7 11 20 29 30 40 9 11 17 26 17 33 0 7 5 13 10 13 6 0 10 5 10
11 0 6 31 61 69 123 37 61 77 127 87 146 10 19 21 37 24 40 18 18 144 274 165
335 23 66 26 219 7 259 -20 39 -93 112 -123 121 -33 11 -126 13 -167 4z"/>
<path d="M6675 7160 c-29 -11 -93 -85 -99 -112 -3 -13 -8 -41 -11 -63 -3 -22
-7 -52 -9 -66 -7 -40 -87 -282 -98 -296 -6 -7 -8 -13 -4 -13 3 0 0 -16 -8 -35
-8 -19 -12 -35 -9 -35 3 0 1 -6 -4 -12 -6 -7 -14 -26 -18 -43 -5 -16 -9 -32
-10 -35 -29 -95 -32 -108 -39 -137 -2 -12 -14 -56 -26 -98 -12 -42 -23 -85
-25 -96 -2 -12 -6 -28 -9 -37 -3 -9 -8 -32 -11 -51 -3 -19 -8 -37 -10 -41 -2
-3 -6 -17 -8 -31 -6 -28 -47 -217 -53 -239 -3 -13 -28 -120 -39 -170 -2 -8
-15 -64 -30 -125 -15 -60 -29 -121 -32 -134 -2 -13 -8 -32 -14 -43 -5 -10 -7
-18 -5 -18 3 0 2 -10 -3 -23 -5 -13 -12 -41 -15 -61 -4 -21 -8 -41 -11 -45 -2
-4 -6 -18 -8 -32 -3 -13 -10 -42 -15 -64 -6 -22 -13 -51 -16 -65 -5 -23 -9
-42 -21 -90 -8 -31 -12 -51 -25 -105 -6 -27 -22 -97 -36 -155 -14 -58 -27
-112 -29 -120 -2 -8 -10 -42 -19 -76 -8 -33 -17 -69 -19 -80 -2 -10 -9 -39
-16 -64 -7 -25 -15 -52 -16 -60 -2 -8 -13 -51 -25 -95 -11 -44 -22 -89 -25
-100 -2 -11 -4 -20 -5 -20 -1 0 -3 -7 -5 -15 -1 -8 -8 -35 -16 -60 -7 -25 -13
-50 -15 -56 -1 -6 -10 -38 -19 -70 -10 -33 -18 -64 -19 -71 -1 -7 -5 -16 -9
-19 -4 -4 -7 -18 -7 -30 0 -13 -5 -26 -10 -29 -6 -4 -8 -11 -5 -16 4 -5 3 -15
-2 -21 -4 -7 -8 -20 -10 -28 -3 -21 -112 -349 -128 -385 -7 -16 -22 -51 -34
-77 -11 -26 -21 -50 -21 -53 0 -11 -126 -260 -153 -302 -15 -24 -27 -47 -27
-52 0 -5 -3 -11 -8 -13 -4 -1 -23 -28 -42 -58 -57 -92 -178 -247 -243 -314
-34 -35 -102 -93 -152 -129 -49 -37 -95 -71 -101 -76 -6 -5 -20 -12 -32 -15
-12 -4 -22 -12 -22 -17 0 -6 -4 -8 -9 -5 -5 4 -11 3 -13 -1 -4 -9 -134 -74
-210 -104 -51 -20 -262 -85 -303 -93 -11 -3 -40 -9 -65 -15 -25 -7 -54 -13
-65 -15 -11 -2 -36 -7 -55 -10 -19 -4 -48 -9 -65 -12 -16 -2 -41 -6 -55 -9
-14 -2 -43 -7 -65 -9 -22 -3 -76 -10 -120 -15 -44 -6 -102 -13 -130 -16 -60
-6 -114 -13 -135 -18 -91 -22 -152 -53 -206 -104 -67 -64 -76 -85 -77 -165 l0
-71 50 -48 50 -47 94 4 c52 2 108 6 124 8 69 11 163 18 443 31 68 3 140 7 160
9 20 3 66 8 102 11 36 4 74 9 85 11 10 2 37 6 60 9 22 3 48 8 57 11 9 3 25 7
37 9 82 16 336 99 359 117 6 6 12 8 12 5 0 -14 333 164 360 193 3 3 21 16 40
30 72 50 137 107 251 220 96 96 219 232 219 244 0 3 11 19 24 34 14 15 25 30
25 35 1 4 9 15 19 25 67 71 247 414 328 625 25 67 50 131 54 142 13 34 41 114
42 119 0 3 6 27 15 53 20 64 73 250 78 271 2 9 16 62 30 117 14 55 27 109 30
120 2 11 8 35 14 53 5 17 8 32 5 32 -3 0 0 8 5 18 5 9 12 33 15 52 3 19 17 80
31 135 14 55 28 112 30 127 3 15 9 38 14 51 5 13 12 41 15 61 4 21 8 41 11 45
4 7 9 27 20 86 3 17 8 37 11 45 3 8 8 26 10 40 3 14 11 50 19 80 8 30 16 66
19 80 2 14 9 45 15 70 12 47 18 72 25 105 3 11 17 69 31 129 28 113 33 134 41
176 6 29 23 106 31 135 5 22 18 82 27 130 3 17 15 71 26 120 31 140 61 282 66
312 3 15 10 48 16 73 6 25 11 54 13 65 1 11 8 38 14 60 6 22 22 87 35 145 14
58 36 146 51 195 14 50 27 95 28 100 2 6 6 16 10 23 5 6 6 12 2 12 -3 0 1 16
9 35 8 19 13 35 11 35 -3 0 0 11 5 26 6 14 12 37 15 52 2 15 8 45 12 67 4 22
7 90 7 150 0 121 -9 151 -68 213 -57 60 -86 72 -167 71 -41 0 -83 -4 -94 -9z"/>
<path d="M8559 6379 c-93 -14 -125 -19 -146 -24 -13 -3 -31 -7 -40 -9 -10 -2
-30 -9 -45 -15 -16 -6 -28 -9 -28 -7 0 2 -71 -21 -157 -51 -87 -29 -162 -55
-168 -57 -16 -5 -46 -16 -95 -36 -25 -10 -54 -20 -65 -22 -11 -1 -22 -5 -25
-9 -3 -3 -27 -13 -55 -23 -67 -25 -169 -69 -284 -122 -51 -24 -97 -44 -102
-44 -5 0 -9 -4 -9 -8 0 -4 -20 -16 -45 -26 -25 -11 -45 -22 -45 -25 0 -3 -20
-14 -45 -24 -25 -11 -45 -23 -45 -29 0 -5 -4 -7 -8 -4 -4 2 -26 -10 -49 -27
-23 -18 -54 -41 -69 -52 -111 -79 -147 -130 -151 -214 -3 -84 8 -118 55 -164
48 -46 71 -54 163 -52 82 2 98 8 262 96 48 26 87 45 87 42 0 -4 9 2 21 13 12
10 23 18 25 17 2 -1 59 25 126 57 68 33 129 60 136 60 6 0 12 4 12 9 0 5 15
13 33 16 17 4 37 11 42 15 6 4 71 32 145 62 192 79 173 71 215 83 17 4 42 14
57 21 15 8 35 16 45 17 10 2 29 9 43 14 122 49 395 121 485 127 23 1 30 6 85
59 22 21 41 43 41 50 6 56 3 137 -5 157 -16 40 -77 98 -121 116 -43 17 -194
24 -276 13z"/>
<path d="M10099 5056 c-2 -2 -26 -6 -54 -9 -67 -8 -115 -15 -145 -22 -36 -8
-62 -13 -106 -19 -22 -4 -55 -11 -74 -16 -19 -5 -53 -11 -75 -15 -22 -3 -48
-8 -57 -11 -20 -6 -51 -12 -98 -20 -19 -3 -38 -8 -41 -10 -3 -2 -21 -6 -40 -9
-19 -3 -110 -24 -204 -46 -93 -22 -177 -42 -185 -44 -8 -2 -53 -13 -100 -25
-47 -12 -92 -24 -100 -26 -8 -2 -42 -11 -75 -20 -33 -9 -67 -18 -75 -19 -8 -2
-16 -4 -17 -5 -3 -3 -5 -3 -48 -15 -16 -4 -70 -20 -118 -36 -117 -38 -170 -53
-179 -51 -5 1 -8 -3 -8 -9 0 -5 -4 -8 -8 -5 -5 3 -20 -1 -35 -9 -15 -8 -27
-12 -27 -10 0 3 -24 -5 -52 -16 -29 -12 -57 -22 -63 -24 -5 -1 -19 -5 -30 -9
-11 -5 -38 -15 -60 -23 -22 -8 -47 -16 -55 -18 -19 -4 -298 -118 -348 -142
-20 -10 -39 -18 -42 -19 -3 0 -25 -10 -50 -21 -25 -11 -72 -33 -105 -48 -96
-43 -516 -253 -560 -280 -22 -13 -57 -33 -77 -45 -21 -11 -38 -26 -38 -32 0
-6 -3 -9 -6 -5 -16 16 -184 -128 -235 -201 -35 -49 -41 -71 -43 -162 -2 -84 8
-116 57 -167 44 -47 75 -57 159 -55 69 1 102 17 153 75 22 24 72 62 110 84
105 61 325 174 325 168 0 -3 19 7 43 22 23 14 42 25 42 23 0 -1 50 21 110 51
61 29 112 54 115 54 13 4 186 89 190 94 3 3 12 7 21 9 9 1 44 16 78 32 34 17
66 30 71 30 6 0 10 5 10 10 0 6 3 9 8 9 4 -1 10 0 15 1 4 1 10 3 15 5 4 1 20
7 35 13 16 7 30 12 32 12 2 0 32 13 67 29 35 16 81 34 103 41 22 7 46 17 53
23 6 5 12 6 12 1 0 -5 4 -4 8 1 7 10 62 31 327 121 88 31 167 58 175 61 8 3
20 7 25 8 6 2 49 17 98 33 48 17 87 28 87 25 0 -3 7 0 15 7 8 7 15 9 15 5 0
-4 6 -2 14 4 7 6 25 12 40 13 14 1 26 5 26 9 0 3 6 6 13 6 6 0 107 28 222 61
116 33 239 67 275 76 76 17 157 35 185 40 61 12 534 106 550 110 40 9 65 24
99 57 38 37 40 40 42 114 l3 77 -44 47 c-25 26 -50 49 -57 50 -25 4 -305 11
-309 7z"/>
</g>
</svg>
