<svg version="1" xmlns="http://www.w3.org/2000/svg" width="1866.667" height="1866.667" viewBox="0 0 1400.000000 1400.000000"><path d="M203.5 102.1c-19.1 1.7-39 8.7-55.2 19.5-27.4 18.1-45.1 49.5-48.3 85.4-1.4 15.9-1.4 967.1 0 983 5.2 58.5 46.7 99.8 105.4 105 15.2 1.3 967 1.3 982.2 0 59-5.2 100.5-46.8 105.4-105.5 1.3-16.4 1.3-965.6 0-982-4.9-58.7-46.4-100.3-105.4-105.5-13.6-1.2-970.8-1.1-984.1.1zM858 250.9c94.5 5.9 190.8 17.6 231.5 28.1 59.9 15.4 94.9 32.3 121.1 58.4 13.1 13.1 13.9 14.8 13.2 30.8-.3 9.1-.7 10.9-3.3 15.6-3.3 6.1-15.3 17.9-24 23.7-19.5 12.9-55.3 28.3-149.5 64-139.8 53-206.3 80-264.5 107.3-21.2 10-100.5 49.8-122 61.2-54.4 29.1-74.7 40.3-110.5 61.3-70 41-133.4 85-203.9 141.5-87.9 70.3-123.8 108.4-135.6 143.6-3.2 9.6-3.2 13.7.3 21.1 4.8 10 13.3 16.4 36.7 27.6 15.7 7.5 29.3 13.1 44 17.9 8.4 2.8 10.8 4.1 15 8.1l5 4.8v17.2l-5.2 5-5.2 4.9h-9.6c-11.8 0-26.9-2.1-43-6-51.3-12.3-85.6-38-92.1-69-1.2-5.6-1.5-11.4-1.2-23 .4-14.7.6-16.1 4.2-26.5 8.3-24.6 20.7-42.5 50.6-72.9 25.5-25.9 53.9-50.9 99-87.1 106.6-85.4 213.3-155 341.5-222.7 50.7-26.8 119.1-60.5 156.5-77.1 77-34.1 120.6-51.6 236.5-95.2 78-29.3 99-37.6 118.8-46.7 4.8-2.3 8.7-4.5 8.7-5 0-1.6-15.1-10.7-28.5-17.3-27.6-13.5-66.1-23.9-115-30.9C891.9 294 759.7 290 638 301.6c-90.4 8.6-219.2 33.5-295 57.1-42.8 13.3-77.9 28.9-90.6 40.5L246 405h-7.1c-7.9 0-10.8-1.2-15.7-6.2-3.8-4-5.2-8.2-5.2-15.9 0-9.5 2.2-14.8 9.6-22.8 17.3-18.6 58.8-37.8 119.9-55.2 37.7-10.8 91.3-23.5 128-30.3 60.5-11.3 138.6-20.3 204-23.6 11.6-.6 23.7-1.2 27-1.4 13.3-.8 135.2.3 151.5 1.3zM504.8 419.4c3.8 2 10.9 9.5 12.1 12.9 1.7 4.3 1.3 21.5-.5 27.8-5.1 17.4-34.3 66.9-78.7 133.4-13.5 20.2-16.7 26.3-16.7 31.7 0 3-.8 4.7-3.7 7.9-5.2 5.8-8 6.9-17.1 6.9-7.2 0-8.3-.3-12-3-2.3-1.6-5.4-4.9-6.9-7.2-2.7-4-2.8-4.7-2.7-15.7.1-10.4.5-12.7 3.5-21.6 5.3-16 17.5-38.8 46.7-87.2 28.2-47.1 30.5-51.1 31.6-55.5.3-1.4 1.7-4 3.1-5.6 1.3-1.6 3.3-5.3 4.4-8.3 2-5.3 9.6-14 14.6-16.7 3-1.7 19-1.5 22.3.2zm304.9 163.7c3.8 1.4 11.9 9.4 14.6 14.4 2 3.6 2.2 5.5 2.1 17.5 0 15-.7 18.6-9.4 48.7-5.4 18.5-11.5 44.1-18.6 78.3-14.8 71.2-49.7 218-61.8 259.5-21 72.6-49.8 122.8-92.6 161.3-24.6 22.1-48.6 35.9-81.6 46.7-23.6 7.8-42 10.9-74.4 12.5-27.2 1.4-47.1 2.9-56.3 4.1-4.2.6-10.5.9-13.9.7-5.8-.4-6.3-.7-10.9-5.5l-4.9-5.2v-7.6c0-9.2 1.1-11.6 8.2-18 10.1-9.1 16.5-11.1 45.8-14.5 50-5.7 80.1-13.4 108.5-27.5 32.4-16.1 51.6-34.5 74.6-71.2 27.6-44 42.8-90 76.3-230.8 5.8-24.2 13.2-55 16.5-68.5 3.3-13.5 7.8-32.8 10.1-43 10.4-46.6 14.1-60.2 26.1-96.7 7.6-23.2 10.7-35.3 10.9-43 0-1.8 6.9-9.2 10.5-11.5 3.4-2.1 15.4-2.5 20.2-.7zm216.8 87c2.7.7 5.9 3 9.8 6.8l5.7 5.8v8.7c0 9.2-.7 11.4-4.9 15.9-3.7 4-6.7 5.3-13.9 6.1-9 1-31.7 7.4-54.2 15.4-35.4 12.6-60.5 23.4-97.9 42.4l-25.6 13-10.7-.4-10.7-.3-4.1-4c-2.3-2.2-4.8-5.2-5.6-6.7-1.9-3.6-1.9-17 0-20.7 2.2-4.1 14.3-15.1 23.2-21 9.7-6.5 48.9-26.1 63.9-32 34-13.4 72.9-26.2 87.1-28.6 9.8-1.6 32.5-1.9 37.9-.4zm175.4 146.3c1.5.8 4.4 3.3 6.4 5.5 3.6 4 3.7 4.3 3.7 12.1v8.1l-4.6 4.9c-2.5 2.7-6 5.4-7.7 5.9-3.5 1.1-17.6 4-47.2 9.6-40.4 7.7-80.7 18.8-135.7 37.4-55.3 18.8-75.9 27.3-140.2 58-47.1 22.5-62.4 31-70.4 39.3l-6.1 6.3-8.6.4c-10.4.4-13-.5-18.9-6.9-5.2-5.6-6-8.6-5.4-20.4.5-10.2 2.7-14.3 12.5-23.8 10.7-10.3 28.9-21.5 60.3-37.2 83.9-41.9 152.3-65.1 259-88 49.8-10.7 61.5-12.4 82.3-12.5 13.6-.1 18.5.2 20.6 1.3z"/></svg>